<svg xmlns="http://www.w3.org/2000/svg" xmlns:xlink="http://www.w3.org/1999/xlink" id="Calque_1" x="0" y="0" version="1.1" viewBox="0 0 800 800" xml:space="preserve" style="enable-background:new 0 0 800 800"><style type="text/css">.st0{fill:#e5eedf}.st1{fill:#84be5d}</style><switch><g><g><path d="M652.6,256.3L301.9,671.9c16.8,6.1,34.3,10.7,52.3,13.6l318.2-386.6C667,284.1,660.3,269.9,652.6,256.3z" class="st0"/><path d="M489.2,123.4L143.5,533.1c26.1,50.1,66.5,91.6,115.6,119.2l358.7-444.5C583.7,169.1,539.4,139.6,489.2,123.4 z" class="st0"/><path d="M782.3,414.5c-5.3-7.6-11.4-12.4-18.2-14.5c6.8-2,12.9-6.9,18.2-14.5l0.2-0.3c0.7-1.1,6.7-11.1,3.8-21.8 c-1.1-4.3-4.2-10.4-12.4-14.9c-1.1-0.6-10-5-18.3-1c-3.6,1.7-8.3,5.7-10,14.8c-0.7,3.5,1.6,6.9,5.1,7.6c3.5,0.7,6.9-1.6,7.6-5.1 c0.3-1.7,1.1-4.7,2.9-5.6c1.9-0.9,5.1,0.1,6.5,0.7c3.3,1.8,5.2,4,5.9,6.7c1.2,4.4-1.1,9.8-2.2,11.6c-4.3,6.1-9,9.4-14,9.8 c-8.1,0.6-15.4-6.2-16.8-7.6c-8.6-12.1,2.8-27.2,3.3-27.8c14.8-19.3,17.3-31.5,17.7-34.5c5.5-23.5-4.2-46.5-28.1-66.6 c-11.1-9.3-29.7-19.4-41.9-25.6c2.4-7.3,3.7-14.8,3.7-22.6c0-36.4-27.7-66.8-64.2-73.4c-0.5-17.8-8.9-36.6-22.1-45.2 c-16.8-10.8-38.7-12-59.3-9.5c-27.3,3.3-41.6,8-51.3,6.7c-1.8-0.6-3.7-1.1-5.5-1.6c-2.7-1.4-5-3.6-7.4-6.9 c-0.8-1.7-3.6-9.2-0.6-16.6c1.8-4.5,6.3-7.9,13.4-10.1c2.1-0.5,7.7-1,11.5,1.4c2.3,1.5,3.8,4,4.5,7.6c0.2,1.5,0.1,4.8-1.3,6.3 c-1.3,1.4-4.4,1.2-6.1,1c-2.7-0.3-5.1,1-6.4,3.3c-0.4,0.7-0.7,1.5-0.8,2.3c-0.4,3.5,2.1,6.7,5.6,7.1c9,1.1,14.2-2,16.9-4.9 c6.2-6.5,4.8-16.1,4.6-17.4c-1.7-9-6.5-13.7-10.2-16.1c-9.2-5.9-20.3-3.3-21.6-3l-0.3,0.1c-5.4,1.6-9.9,3.9-13.5,6.8 c0.4-3,0.4-6.1-0.2-9.3c-3.9-22.5-27.9-33.4-48.7-27.7c-19.9,5.5-30.1,21.5-31.9,39c-1.8-17.5-12.1-33.5-31.9-39 c-20.9-5.8-44.8,5.2-48.7,27.7c-0.6,3.2-0.6,6.3-0.2,9.3c-3.6-2.8-8.1-5.1-13.4-6.7l-0.3-0.1c-1.2-0.3-12.4-2.9-21.6,3 c-3.7,2.4-8.5,7.1-10.2,16.1c-0.2,1.2-1.6,10.9,4.6,17.4c2.7,2.8,7.9,6,16.9,4.9c3.5-0.4,6-3.6,5.6-7.1c-0.1-0.8-0.4-1.6-0.8-2.3 c-1.2-2.2-3.7-3.6-6.4-3.3c-1.7,0.2-4.8,0.4-6.1-1c-1.4-1.5-1.5-4.8-1.3-6.3c0.7-3.6,2.2-6.1,4.5-7.6c3.8-2.5,9.5-1.9,11.5-1.4 c7,2.2,11.5,5.6,13.4,10.1c3,7.4,0.2,14.9-0.6,16.6c-2.3,3.3-4.7,5.5-7.4,6.9c-1.8,0.5-3.7,1.1-5.5,1.6c-9.6,1.3-24-3.4-51.3-6.7 c-20.6-2.5-42.5-1.4-59.3,9.5c-13.2,8.5-21.7,27.3-22.1,45.2c-36.5,6.5-64.2,36.9-64.2,73.4c0,7.9,1.3,15.6,3.8,22.9 c-12.2,6.2-30.5,16.1-41.4,25.3c-23.9,20.1-33.6,43.1-28.1,66.6c0.4,3,2.9,15.2,17.7,34.5c0.5,0.6,11.9,15.7,3.3,27.8 c-1.4,1.3-8.7,8.2-16.8,7.6c-5-0.4-9.6-3.7-14-9.8c-1.1-1.9-3.4-7.2-2.2-11.6c0.7-2.7,2.7-4.9,5.9-6.7c1.4-0.7,4.6-1.6,6.5-0.7 c1.7,0.9,2.6,3.9,2.9,5.6c0.7,3.5,4.1,5.8,7.6,5.1c3.5-0.7,5.8-4.1,5.1-7.6c-1.8-9.1-6.4-13.1-10-14.8c-8.2-4-17.1,0.4-18.3,1 c-8.2,4.5-11.3,10.6-12.4,14.9c-2.8,10.8,3.2,20.7,3.8,21.8l0.2,0.3c5.3,7.6,11.4,12.4,18.2,14.5c-6.8,2-12.9,6.9-18.2,14.5 l-0.2,0.3c-0.7,1.1-6.7,11.1-3.8,21.8c1.1,4.3,4.2,10.4,12.4,14.9c1.1,0.6,10,5,18.3,1c3.6-1.7,8.3-5.7,10-14.8 c0.7-3.5-1.6-6.9-5.1-7.6c-3.5-0.7-6.9,1.6-7.6,5.1c-0.3,1.7-1.1,4.7-2.9,5.6c-1.9,0.9-5.1-0.1-6.5-0.7c-3.3-1.8-5.2-4-5.9-6.7 c-1.2-4.4,1.1-9.8,2.2-11.6c4.3-6.1,9-9.4,14-9.8c8.1-0.6,15.4,6.2,16.8,7.6c8.6,12.1-2.8,27.2-3.3,27.8 c-14.8,19.3-17.3,31.5-17.7,34.5c-5.5,23.5,4.2,46.5,28.1,66.6c10.9,9.2,29.1,19.1,41.4,25.3c-2.5,7.4-3.8,15-3.8,22.9 c0,36.4,27.7,66.8,64.2,73.4c0.5,17.8,8.9,36.6,22.1,45.2c16.8,10.8,38.7,12,59.3,9.5c42.1-5.1,53.3-13.6,64.1,1.8 c0.8,1.7,3.6,9.2,0.6,16.6c-1.8,4.5-6.3,7.9-13.4,10.1c-2.1,0.5-7.7,1-11.5-1.4c-2.3-1.5-3.8-4-4.5-7.6c-0.2-1.5-0.1-4.8,1.3-6.3 c1.3-1.4,4.4-1.2,6.1-1c2.7,0.3,5.1-1,6.4-3.3c0.4-0.7,0.7-1.5,0.8-2.3c0.4-3.5-2.1-6.7-5.6-7.1c-9-1.1-14.2,2-16.9,4.9 c-6.2,6.5-4.8,16.1-4.6,17.4c1.7,9,6.5,13.7,10.2,16.1c9.2,5.9,20.3,3.3,21.6,3l0.3-0.1c5.4-1.6,9.9-3.9,13.4-6.7 c-0.4,3-0.4,6.1,0.2,9.3c3.9,22.5,27.9,33.4,48.7,27.7c19.9-5.5,30.1-21.5,31.9-39c1.8,17.5,12.1,33.5,31.9,39 c20.9,5.8,44.8-5.2,48.7-27.7c0.6-3.2,0.6-6.3,0.2-9.3c3.6,2.9,8.1,5.1,13.5,6.8l0.3,0.1c1.2,0.3,12.4,2.9,21.6-3 c3.7-2.4,8.5-7.1,10.2-16.1c0.2-1.2,1.6-10.9-4.6-17.4c-2.7-2.8-7.9-6-16.9-4.9c-3.5,0.4-6,3.6-5.6,7.1c0.1,0.8,0.4,1.6,0.8,2.3 c1.2,2.2,3.7,3.6,6.4,3.3c1.7-0.2,4.8-0.4,6.1,1c1.4,1.5,1.5,4.8,1.3,6.3c-0.7,3.6-2.2,6.1-4.5,7.6c-3.8,2.5-9.5,1.9-11.5,1.4 c-7-2.2-11.5-5.6-13.4-10.1c-3-7.4-0.2-14.9,0.6-16.6c10.8-15.3,22.1-6.9,64.1-1.8c20.6,2.5,42.5,1.4,59.3-9.5 c13.2-8.5,21.7-27.3,22.1-45.2c36.5-6.5,64.2-36.9,64.2-73.4c0-7.8-1.3-15.4-3.7-22.6c12.2-6.2,30.9-16.3,41.9-25.6 c23.9-20.1,33.6-43.1,28.1-66.6c-0.4-3-2.9-15.2-17.7-34.5c-0.5-0.6-11.9-15.7-3.3-27.8c1.4-1.3,8.7-8.2,16.8-7.6 c5,0.4,9.6,3.7,14,9.8c1.1,1.8,3.4,7.2,2.2,11.6c-0.7,2.7-2.7,4.9-5.9,6.7c-1.4,0.7-4.6,1.6-6.5,0.7c-1.7-0.9-2.6-3.9-2.9-5.6 c-0.7-3.5-4.1-5.8-7.6-5.1c-3.5,0.7-5.8,4.1-5.1,7.6c1.8,9.1,6.4,13.1,10,14.8c8.2,4,17.1-0.4,18.3-1 c8.2-4.5,11.3-10.6,12.4-14.9c2.8-10.8-3.2-20.7-3.8-21.8L782.3,414.5z M52.9,316.5l0-0.5l-0.1-0.5 c-7.6-31.6,31.1-59.5,55.6-73.6c-18.1,33.4-30.6,70.2-36.3,109.2c-2-3.8-3.8-6.1-4-6.4C54.3,326.8,52.9,316.5,52.9,316.5z M53,400c7.2-2,12.8-6.3,15.7-8.9c-0.1,2.7-0.1,5.5-0.1,8.3c0,3.2,0.1,6.3,0.1,9.5C65.9,406.4,60.2,402,53,400z M52.8,484.5 l0.1-0.5l0-0.5c0,0,1.4-10.3,15.1-28.2c0.2-0.3,2.1-2.8,4.2-6.7c5.9,39.3,18.7,76.4,37.1,110C84.9,544.7,45,516.5,52.8,484.5z M749.1,315.5L749,316l0,0.5c0,0-1.4,10.3-15.1,28.2c-0.2,0.3-2.4,3.1-4.6,7.4c-5.7-39.6-18.3-77-36.7-110.8 C716.9,255.3,756.8,283.5,749.1,315.5z M629,146.8c28.2,5.4,49.5,28.7,49.5,56.6c0,4.3-0.5,8.4-1.5,12.5 c-14.8-22.3-32.3-42.6-51.9-60.7C626.8,152.6,628.1,149.8,629,146.8z M552.7,88.6c1.7-0.1,3.5-0.1,5.4-0.1 c8.9-0.1,19.4,0.3,28.8,2.7c7.9,2,15,5.4,19.7,11.1c5.2,6.3,9.2,16.6,9.9,26.5c-6.6,0-13.1,0.8-19.4,2.3 c-0.3,0.1-0.6,0.2-0.9,0.3c-21.4-15.6-44.7-28.8-69.5-39C536.2,90.7,545.4,88.8,552.7,88.6z M428.2,44c2-6.6,8.4-12.1,15.4-12.4 c2.8-0.1,9.6,0.6,9.6,5.1c0,1.5-0.7,2.6-2.3,2.2c-17.9-4.2-24.8,23.5-6.9,27.6c10.2,2.4,20.2-0.6,27.3-6.7 c-0.1,0.6-0.1,1.2-0.1,1.9c-0.2,5.3,1,10.2,2.2,13.8c-12.6-2.8-25.5-5-38.6-6.3C425.9,64.7,425,54.2,428.2,44z M400.6,55.2 c0.4,4.2,1.3,8.3,2.6,12.3c-0.9,0-1.7,0-2.6,0c-0.9,0-1.8,0-2.6,0C399.3,63.5,400.2,59.3,400.6,55.2z M329.9,61.7 c0-0.6-0.1-1.2-0.1-1.8c7.1,6.1,17.1,9.1,27.3,6.7c17.8-4.2,11-31.8-6.9-27.6c-1.6,0.4-2.3-0.7-2.3-2.2c0.1-4.4,6.8-5.2,9.6-5.1 c7,0.3,13.4,5.9,15.4,12.4c3.1,10.2,2.3,20.7-6.7,25.2c-13.1,1.4-25.9,3.5-38.5,6.3C329,71.9,330.1,67,329.9,61.7z M194.6,102.2 c4.8-5.7,11.9-9.1,19.7-11.1c9.4-2.4,19.9-2.8,28.8-2.7c1.9,0,3.7,0.1,5.4,0.1c7.3,0.2,16.4,2.1,26,3.7 c-24.8,10.2-48.1,23.4-69.5,39c-0.3-0.1-0.6-0.2-0.9-0.3c-6.3-1.5-12.8-2.3-19.4-2.3C185.4,118.8,189.4,108.5,194.6,102.2z M172.1,146.8c0.9,3,2.2,5.8,3.8,8.4c-19.6,18.1-37,38.4-51.9,60.7c-1-4.1-1.5-8.2-1.5-12.5C122.6,175.5,143.9,152.2,172.1,146.8 z M172.1,653.2c-28.2-5.4-49.5-28.7-49.5-56.6c0-4.6,0.6-9,1.7-13.3c14.9,22.3,32.4,42.7,52.1,60.8 C174.6,646.9,173.2,649.9,172.1,653.2z M188.1,654.3c-0.1,0-0.2,0-0.4,0c0-0.1,0.1-0.2,0.1-0.2 C187.9,654.1,188,654.2,188.1,654.3z M248.5,711.4c-1.7,0.1-3.5,0.1-5.4,0.1c-8.9,0.1-19.4-0.3-28.8-2.7c-7.9-2-15-5.4-19.7-11.1 c-5.2-6.3-9.2-16.6-9.9-26.5c6.6,0,13.1-0.8,19.4-2.3c0.7-0.2,1.3-0.4,1.9-0.7c21.7,15.7,45.3,28.9,70.5,39.1 C266.3,709,256.3,711.1,248.5,711.4z M373,756c-2,6.6-8.4,12.1-15.4,12.4c-2.8,0.1-9.6-0.6-9.6-5.1c0-1.5,0.7-2.6,2.3-2.2 c17.9,4.2,24.8-23.5,6.9-27.6c-10.2-2.4-20.2,0.5-27.3,6.7c0.1-0.6,0.1-1.2,0.1-1.8c0.2-5.9-1.3-11.4-2.7-15.1 c10.7,2.4,21.6,4.3,32.7,5.7c0.1,0,0.1,0,0.2,0C374.9,731.2,376.7,743.9,373,756z M400.6,744.8c-0.5-4.6-1.5-9.1-3-13.5 c1,0,2,0,3,0c1,0,2,0,3,0C402.1,735.7,401,740.3,400.6,744.8z M471.3,738.3c0,0.6,0.1,1.2,0.1,1.9c-7.1-6.2-17.1-9.1-27.3-6.7 c-17.8,4.2-11,31.8,6.9,27.6c1.6-0.4,2.3,0.7,2.3,2.2c-0.1,4.4-6.8,5.2-9.6,5.1c-7-0.3-13.4-5.9-15.4-12.4 c-3.7-12.1-1.9-24.8,12.8-27c0.1,0,0.1,0,0.2,0c11.1-1.4,22-3.3,32.8-5.7C472.5,726.9,471,732.4,471.3,738.3z M606.6,697.8 c-4.8,5.7-11.9,9.1-19.7,11.1c-9.4,2.4-19.9,2.8-28.8,2.7c-1.9,0-3.7-0.1-5.4-0.1c-7.8-0.3-17.8-2.4-28.1-4.1 c25.2-10.2,48.8-23.4,70.5-39.1c0.6,0.3,1.2,0.6,1.9,0.7c6.3,1.5,12.8,2.3,19.4,2.3C615.8,681.2,611.8,691.5,606.6,697.8z M613.1,654.3c0.1-0.1,0.2-0.1,0.2-0.2c0,0.1,0.1,0.2,0.1,0.2C613.4,654.3,613.2,654.3,613.1,654.3z M629,653.2 c-1-3.3-2.5-6.3-4.3-9.1c19.7-18.1,37.2-38.5,52.1-60.8c1.1,4.3,1.7,8.8,1.7,13.3C678.6,624.5,657.3,647.8,629,653.2z M400.6,689.2c-15.8,0-31.2-1.3-46.3-3.7c-18.1-2.9-35.6-7.5-52.3-13.6c-14.9-5.4-29.2-12-42.8-19.6 c-49.2-27.6-89.5-69.1-115.6-119.2c-20.9-40-32.7-85.5-32.7-133.7c0-159.8,130-289.8,289.8-289.8c30.9,0,60.6,4.9,88.6,13.9 c50.2,16.2,94.5,45.7,128.7,84.3c13.2,14.9,24.8,31.2,34.7,48.6c7.7,13.5,14.4,27.8,19.9,42.6c11.6,31.3,18,65.2,18,100.5 C690.4,559.2,560.4,689.2,400.6,689.2z M748.9,483.5l0,0.5l0.1,0.5c7.8,32.5-33.2,61-57.5,74.7c18.8-34,31.7-71.7,37.5-111.6 c2.2,4.5,4.4,7.4,4.7,7.7C747.6,473.2,748.9,483.5,748.9,483.5z M732.4,409.5c0.1-3.4,0.2-6.7,0.2-10.1c0-3,0-5.9-0.1-8.9 c2.6,2.4,8.6,7.3,16.4,9.5C741,402.2,735,407.1,732.4,409.5z" class="st1"/></g></g></switch></svg>